<svg xmlns="http://www.w3.org/2000/svg" viewBox="0 0 348.06 303.02"><defs><style>.cls-1{fill:#fff;}.cls-2{fill:none;}</style></defs><title>Varlık 3</title><g id="katman_2" data-name="katman 2"><g id="katman_1-2" data-name="katman 1"><path d="M348.06,143v17c-.26.18-.72.33-.75.54-3.46,21-15.74,36.32-32,48.59a255.92,255.92,0,0,1-32.44,20.68c-8.28,4.46-17.47,7.4-26.49,10.31-10.27,3.31-20.79,5.84-31.39,8.76.72,2.73,1.45,5.39,2.13,8.06.73,2.83,1.4,5.68,2.13,8.51a15.58,15.58,0,0,1-9.35,18.19,13.5,13.5,0,0,1-17.74-6.89c-3.85-8.2-6.94-16.78-10-25.31-1.93-5.28-3.27-10.77-5.19-17.23-5.95,12.08-11.41,23.14-16.84,34.22-3.51,7.15-6.84,14.42-15,17.57h-9c-12.52-5.45-14.86-16.3-10.06-26.36,1.66-3.49,2.85-7.21,4.08-10.36-13.27-5-26.49-9.29-39.05-15-19.24-8.74-36.49-20.43-50.26-36.91a82.88,82.88,0,0,1-14.61-24.6c-1.75-4.79-2.76-9.85-4.1-14.78V145c.3-.34.85-.66.88-1,1.06-13.9,8.36-25,16.9-35.07C61.43,95.2,76,84.9,92.07,77.17c14.44-7,29.55-12.55,45-19-.1-.48-.31-2.07-.74-3.6-4.13-14.7-8.46-29.36-12.26-44.14-.52-2,.89-5.41,2.54-6.89,1.2-1.08,5.05-1,6.4.15,9.41,7.88,19.09,15.58,27.48,24.48,9.51,10.07,17.77,21.33,26.64,32.16a7.68,7.68,0,0,0,1.78-2c7.95-16.12,15.6-32.4,23.9-48.33,2-3.9,6.14-6.72,9.3-10h8a7,7,0,0,0,1.46,1.11c16.1,6.62,32.08,13.58,48.38,19.67C288.62,24,291.14,32.49,288.06,40c-3.7,9-7.35,18.08-10.59,26.06,13,9.12,26.17,17.36,38.11,27.12a101.81,101.81,0,0,1,20.63,23C341.47,124.23,344.21,134,348.06,143ZM147.4,93.42c-11.29,3.94-22.47,7.37-33.28,11.73-15.5,6.24-29.16,15.19-38.36,29.69-4.4,6.95-6.24,14.79-4.31,22.65,3.11,12.66,11.55,21.86,22.32,28.68,9.16,5.8,18.58,11.28,28.25,16.17,10.19,5.15,20.82,9.42,31.64,14.25,4.78-11.6,9.14-22.1,13.44-32.63,1.5-3.68,3.59-6.91,2.25-11.57C161.87,146.35,154.79,120.19,147.4,93.42Zm50.65,61c.8,2.57,1.48,4.57,2,6.6,4.33,15.32,8.68,30.64,12.91,46,.66,2.4,1.08,4.63,4.32,3.9,17.43-3.94,34.95-7.35,51.49-14.69,14.25-6.33,26.67-14.5,35.33-27.78,6.92-10.62,7.17-22.8.2-33.83-10.85-17.16-28.84-25-44.66-35.55-3.05,4.07-5.4,8-8.52,11.16a52.43,52.43,0,0,1-11.57,9.38c-6,3.3-13,4.84-16.8,11.38-.75,1.27-2.85,1.67-3.91,2.85a5.44,5.44,0,0,0-1.55,3.76c1.07,7.38-1,11.16-7.91,13.41C205.74,152.19,202,153.23,198.05,154.41Zm7.14-14.92c-9.91-44.42-29.85-82.69-64.66-114.13,2.73,9.33,5.13,17.39,7.44,25.47,5.37,18.77,10.76,37.54,16,56.33,7.28,26,14.44,52,21.69,78,5.11,18.33,10,36.72,15.56,54.93,3,9.93,7,19.57,10.76,29.25.47,1.21,2.31,1.88,3.51,2.81.59-1.55,1.73-3.12,1.65-4.63a35.58,35.58,0,0,0-1.65-7.61c-9.76-34.26-19.61-68.48-29.28-102.77-2.06-7.31.86-11.89,8.29-14.29C197.9,141.79,201.3,140.73,205.19,139.49ZM246.62,20.37C240.39,34.27,234.33,48,228,61.59a6.58,6.58,0,0,1-4.26,3.27c-5.84.85-8.41-3.59-5.83-9.45,5.69-12.95,11.32-25.93,17.22-39.44l-9.93-4.29c-10.32,20.67-20.39,40.81-30.37,61a4,4,0,0,0,.19,3c2.42,5.14,5,10.22,7.41,15.14,17.85.79,24.52,5.35,28.37,19.43,4.39-1.82,8.55-3.32,11.41-7.77,5.82-9,13.2-17.21,18.12-26.68,5.67-10.93,9.16-23,14-34.34,3.82-9,4.62-8.51-5.69-11.61-.4-.12-.8-.28-1.39-.48-3.79,8.23-7.58,16.29-11.23,24.42-2.47,5.49-4.53,11.19-7.21,16.57-1.75,3.53-5.08,4.89-8.8,3-3.35-1.67-3.71-4.52-2.19-7.88,2.28-5,4.31-10.2,6.54-15.26,3.79-8.59,7.66-17.13,11.59-25.9ZM140.56,70.51c-8.95,3.26-17.58,6.14-26,9.54-22.87,9.23-43.85,21.4-59.22,41.28C41.13,139.72,41,157.15,50.4,175.4c7.84,15.23,20.07,26.89,34.56,36,10.32,6.48,20.59,13,32.69,16.21,9.2,2.46,18,6.55,27.29,10l3.92-9.38c-14.61-6.93-28.73-13.39-42.65-20.29C91.73,200.8,78.34,192,68.48,178.86c-5-6.73-8.56-14.21-9.43-22.73-1.77-17.44,6.18-30.79,18.22-42.09C89.49,102.57,104.22,95.23,120,90l24.16-8C142.93,78,141.82,74.51,140.56,70.51ZM267.2,89.41c5.5,3.51,10.95,7.1,16.51,10.51,11.94,7.32,22.82,15.76,30.53,27.75,8.23,12.82,10.05,26.26,3.77,40.34-5.22,11.7-13.84,20.59-24.12,28-19.95,14.46-43.16,20.17-66.7,24.89-9.24,1.85-9,1.43-7.27,10.87.78,4.18,3,4.68,6.19,4.08a101.54,101.54,0,0,0,10.14-2.54c9.08-2.72,18.28-5.13,27.15-8.42,23.87-8.84,45.41-21.37,61.12-42,10.79-14.17,15.6-30.09,8.32-47.25a99.17,99.17,0,0,0-14.58-23.58c-5.33-6.5-12.1-12-18.95-17C291,89,281.84,83.88,272.8,78.2Zm-91.44,105.5c-6.58,15.91-12.74,30.75-18.85,45.62-3.46,8.4-6.9,16.82-10.17,25.29-1,2.55-2,5.32,1.48,7.26,3.89,2.16,5.71.22,7.31-3,8.23-16.6,16.59-33.14,24.7-49.8a11,11,0,0,0,.73-6.76C179.6,207.53,177.69,201.66,175.76,194.91Zm38.26-73c5-3.94,6.47-8.21,3.88-12.92-1.93-3.52-4.71-6.69-9.81-5.68Z"/></g></g></svg>