<svg xmlns="http://www.w3.org/2000/svg" viewBox="0 0 115.11 83.73"><title>Varlık 1</title><g id="katman_2" data-name="katman 2"><g id="katman_1-2" data-name="katman 1"><path d="M101.77,41.7a41.46,41.46,0,0,1-82.92-.15,41.46,41.46,0,1,1,82.92.15ZM60.1,79.51c21.58.1,38.23-16.35,38.28-37.81S81.59,3.27,60.45,3.33C40.24,3.39,22,18.6,22.09,41.55A37.46,37.46,0,0,0,60.1,79.51Z"/><path d="M115,2.23V74.94c0,1.66.42,3.5-.16,4.94s-2,3.44-3.37,3.74c-2.87.63-3.53-1.6-3.4-4.09.45-9,1.21-18,1.19-26.94a145.8,145.8,0,0,0-1.67-21.28C105.92,20.57,109,11.18,115,2.23Z"/><path d="M10.92,20.23Q11.47,11.89,12,3.55h1.52c.14,1.51.34,3,.41,4.52.26,5.14.8,10.29.54,15.41a10.88,10.88,0,0,1-3,6.48,5.42,5.42,0,0,1-8.07,0A11.2,11.2,0,0,1,.13,23.56c-.36-5.11.12-10.28.3-15.42C.49,6.57.72,5,.86,3.45l1.56-.06L3.7,20.16l1.44-.07L6,3.16H8.47l.85,17Z"/><path d="M8.25,35.1A39.69,39.69,0,0,1,9,39.64Q9.87,59,10.65,78.41c.1,2.51.48,5.4-3.32,5.32-3.5-.07-3-2.83-3-5.13.38-12.44.76-24.87,1.22-37.3a54.79,54.79,0,0,1,.88-6.07Z"/><path d="M37.25,41.4A23.07,23.07,0,0,1,60.32,18.29,23.57,23.57,0,0,1,83.64,41.35c.07,12.6-11,23.6-23.51,23.43A23.27,23.27,0,0,1,37.25,41.4ZM60.06,20.72c-11.69.05-20.5,9-20.45,20.88,0,12.06,8.93,20.75,21.14,20.7,11.32,0,20.51-9.52,20.5-21.12C81.24,29.92,71.67,20.68,60.06,20.72Z"/></g></g></svg>