<svg xmlns="http://www.w3.org/2000/svg" viewBox="0 0 111.04 110.48"><defs><style>.cls-1{fill:#565551;}.cls-2{fill:#575653;}.cls-3{fill:#575652;}.cls-4{fill:#585854;}.cls-5{fill:#575753;}.cls-6{fill:#595854;}.cls-7{fill:#595855;}.cls-8{fill:#5d5d59;}.cls-9{fill:#5e5e5b;}.cls-10{fill:#5b5a56;}.cls-11{fill:#5c5c58;}.cls-12{fill:#5a5955;}.cls-13{fill:#5a5956;}.cls-14{fill:#605f5c;}.cls-15{fill:#595955;}.cls-16{fill:#656561;}.cls-17{fill:#575754;}.cls-18{fill:#fdfdfd;}.cls-19{fill:#fefefe;}.cls-20{fill:#fcfcfc;}.cls-21{fill:#fbfbfb;}.cls-22{fill:#5d5e59;}.cls-23{fill:#6a6b67;}</style></defs><title>Varlık 1</title><g id="katman_2" data-name="katman 2"><g id="katman_1-2" data-name="katman 1"><path class="cls-1" d="M111,108.59c-1.25,2.74-3.12,2-5.17.91-7.47-4-15-8-22.44-12-9.68-5.14-19.37-10.25-29-15.43-4.3-2.3-4.56-3.67-1.22-7.06C60.67,67.47,68.28,60,75.76,52.41c2.3-2.33,4.25-2.59,5.89.47q14.28,26.82,28.48,53.67C110.43,107.13,110.66,107.75,111,108.59Z"/><path class="cls-2" d="M57.69,57.78c-6.55-5-13-10.19-19.69-15.08a30.55,30.55,0,0,0-7.57-3.62c-1.71-.63-5.38.87-4.88-2.48s.51-7.45,4.44-9.33a30.84,30.84,0,0,1,4.19-1.53c2.86-.88,4.76-1.1,5.12,3.17C39.72,33.93,43,38,46,42c4,5.16,8.1,10.28,12.15,15.41Z"/><path class="cls-3" d="M22.72,32.89c-2.64-6.25-7.15-7.66-13.39-6.76,4.28-4.31,5.79-8.9,2.48-14.76,5.54,3.3,10.07,2.14,14.55-2.1-1.29,6.35,1.51,10.14,8.39,13.18C27.31,23.42,23.15,26,22.72,32.89Z"/><path class="cls-4" d="M51.55,19.67c-5.39,16.06,5.27,26.94,11.66,39.12C56.74,52.12,50.72,45.27,46.63,37A29.81,29.81,0,0,1,44,29.49C42.37,21,42.33,21,51.55,19.67Z"/><path class="cls-5" d="M57.82,62.14C46.06,55.92,35.47,46,20.45,51.14c-.46-8,1.13-9.39,9.2-7.37C41.09,46.63,49.71,54,57.82,62.14Z"/><path class="cls-6" d="M39.14,2c4.4,2.56,7.54,1,11-2-.48,4.63.13,8.07,5.13,9.71-3.91,1.83-8.17,2.51-7.68,8.08-2.73-3.44-5.45-5.52-10.27-4.25C39.75,9.63,41.75,6.29,39.14,2Z"/><path class="cls-7" d="M10.36,54.37c-2.13-4-5.5-4.81-10.36-4.5,4-3.53,4.06-7,1.86-11.52C6.28,40.68,9.62,40.64,13,36.44c-.17,4.92.51,8.48,5.78,10.21C14.09,48,10.89,49.7,10.36,54.37Z"/><path class="cls-8" d="M48,67.77C42.4,67,38.8,65,35.12,63.2c-1.41-.66-2.57-1.79-1.41-3.53,1-1.57,2.39-1.39,3.83-.36A64.71,64.71,0,0,1,48,67.77Z"/><path class="cls-9" d="M71.91,47.47c-2.17-4.76-1.74-9-2.45-13-.29-1.6.4-3,2.34-3.08s2.43,1.34,2.35,3A49.84,49.84,0,0,1,71.91,47.47Z"/><path class="cls-10" d="M68.3,47.63c-4.21-3.37-6.37-6.92-8.73-10.3-.9-1.3-1.27-2.92.48-3.87s2.9.09,3.54,1.63C65.16,38.86,67.26,42.45,68.3,47.63Z"/><path class="cls-11" d="M47.6,71.54c-4.65,2-8.7,1.71-12.58,2.37-1.85.31-3.54-.3-3.56-2.38,0-1.82,1.58-2.22,3.23-2.18A43.45,43.45,0,0,1,47.6,71.54Z"/><path class="cls-12" d="M71.82,28.39c-2.3-.13-3.61-1.28-3.66-3.73s1.42-3.86,3.61-3.88a3.61,3.61,0,0,1,3.84,3.77A3.59,3.59,0,0,1,71.82,28.39Z"/><path class="cls-13" d="M24.57,67.67c2.32.28,3.9,1.46,4,3.75a3.41,3.41,0,0,1-3.55,3.91c-2.38.12-3.77-1.07-3.89-3.51S22.46,68.21,24.57,67.67Z"/><path class="cls-14" d="M74.76,49.37c.7-4.83,2.43-8,4-11.22.59-1.22,1.6-2.26,3.17-1.17s1.17,2.2.3,3.44C80.25,43.23,78.43,46.18,74.76,49.37Z"/><path class="cls-15" d="M48.59,74.23c-1.82,3.68-4.78,5.47-7.57,7.44-1.21.86-2.84,1.71-3.77-.19-.85-1.73.5-2.68,2-3.31Z"/><path class="cls-16" d="M28.54,60.08a2.81,2.81,0,0,1-2.9-2.74,2.74,2.74,0,0,1,5.45-.46C31.37,58.68,30.14,59.55,28.54,60.08Z"/><path class="cls-17" d="M57.49,30.68A2.42,2.42,0,0,1,55,28.18c-.08-1.7.77-2.87,2.58-2.77a2.52,2.52,0,0,1,2.51,2.94C60.06,30,58.8,30.39,57.49,30.68Z"/><path class="cls-18" d="M55.69,78.19c7.19-7.17,14-13.94,20.79-20.77,1.44-1.46,2.26-1.48,3.25.44,3.19,6.19,6.41,12.38,9.83,18.45,1.27,2.26.2,3.52-1.33,4.58-3.88,2.67-5.8,10-10.94,8.38C69.85,87,63.17,82.18,55.69,78.19Z"/><path class="cls-19" d="M93.33,83.62c-.11,1.46-8.22,9.77-9.23,9.62a3,3,0,0,1-1.6-1c-.73-.8-.19-1.49.42-2.1C85.49,87.6,88,85,90.64,82.47c.4-.39.86-1.26,1.57-.6A7.46,7.46,0,0,1,93.33,83.62Z"/><path class="cls-20" d="M104.2,104.1l-11-5.95c4.84-6.15,4.84-6.15,8.23.5C102.16,100.06,102.87,101.48,104.2,104.1Z"/><path class="cls-21" d="M89.31,96.15c-.37-.29-1.11-.59-1.32-1.1a2,2,0,0,1,.57-1.58C90.25,91.69,92,90,93.77,88.25c1.3-1.3,2-.56,2.43.74S90.87,96.24,89.31,96.15Z"/><path class="cls-6" d="M77.93,85.69c-2.26-4.07-5.17-5.58-9.08-5.54,1.37-2.76,3.36-5,1.69-8.09-.79-1.48.23-2.39,1.64-1.72,3.22,1.53,5.61-.6,8.55-2,.31,3.72.33,7.18,4.92,8.78C82,79.23,78.6,80.84,77.93,85.69Z"/><path class="cls-22" d="M79.58,63.56c-.12,1.13-1.09,2.2-1.94,2.18s-2.64-.11-2.41-2.12c.16-1.4.77-1.82,2.07-2.07C79,61.23,79,62.62,79.58,63.56Z"/><path class="cls-23" d="M66,77.29c-.35,1.14-1,2.3-2.26,1.78-.62-.25-2.43,0-1.94-2a2.21,2.21,0,0,1,2.2-2C65.74,74.87,65.28,76.56,66,77.29Z"/></g></g></svg>