<svg xmlns="http://www.w3.org/2000/svg" viewBox="0 0 576.13 685.46"><defs><style>.cls-1{fill:#fefefe;}.cls-2{fill:#ffffff;}.cls-3{fill:#ffffff;}.cls-4{fill:#ffffff;}</style></defs><title>Varlık 2</title><g id="katman_2" data-name="katman 2"><g id="katman_1-2" data-name="katman 1"><path class="cls-2" d="M576.14,550.23c-2.9,7.74-5.41,15.56-10.36,22.48-18,25.16-55.39,30.59-79.77,11.36-14.69-11.59-21.93-26.84-22-45.37-.16-41.77,0-83.54,0-125.32v-5.62c-6.5,3.59-11.48,8.29-17.11,12.05-2.33,1.55-4.56,3.26-6.81,4.92-4.83,3.57-9.91,3.69-13.68.31s-4.5-9.45-1.29-14.34q11.88-18.15,23.85-36.23c2.14-3.25,4.38-6.42,6.54-9.65,7.55-11.24,22.91-12.59,32-2.59,4.09,4.51,6.15,9.91,4.89,16.2a14.7,14.7,0,0,0-.09,2.82q0,52.77,0,105.53c0,.93.09,1.86.16,3.21,6.24-2.34,12.09-5.05,18.57-6,17.35-2.6,32.78,1.57,46.07,12.91,9.9,8.45,16.3,19.12,18.36,32.16,0,.19.48.31.73.46Z" transform="translate(-0.1 -0.59)"/><path class="cls-3" d="M253.66,1.56a2,2,0,0,0,.1-.88h7.54a3.26,3.26,0,0,0,.12.87A5.8,5.8,0,0,1,253.66,1.56Z" transform="translate(-0.1 -0.59)"/><path class="cls-4" d="M163.43,281.08c-21-10-41.82-19.86-62.53-29.81C86,244.11,81.49,227.52,90.69,214.06c7.62-11.14,24.74-13.45,35.53-4.72,20.11,16.26,40.24,32.5,60.21,48.94,2.13,1.75,3.44,1.5,5.15.16,16.51-12.94,34.42-23.7,52.79-33.71,2.56-1.4,2.8-2.33,1.18-4.77-14-21.11-27.92-42.33-41.87-63.5-9.68-14.7-3.64-33.19,12.41-38.33,12.3-3.93,26.34,3.35,30.28,14.67,8.45,24.31,17.5,48.4,26.26,72.6,1.15,3.19,2.5,4.3,6.07,2.65a363.93,363.93,0,0,1,57.68-20.76c2.67-.72,5.26-1.47,3.58-5.36-.58-1.34-.25-3.09-.3-4.65-.36-12.52-.11-25.1-1.24-37.55-1-11.38-.42-22.78-1.55-34.15-1.1-11,3.37-19.73,13.6-24.9,9.65-4.88,18.71-3.41,26.86,3.19,7.81,6.31,9.78,15.06,8.05,24.47-4.1,22.29-8.6,44.5-12.88,66.76-.26,1.33-1.47,2.51-.56,4.28a207.74,207.74,0,0,1,36.71-3c17.83.31,35.55,2.26,51.62,11.07,18.17,10,28.55,24.77,28.23,46.13-.14,9-.54,17.95.09,26.86,1.21,17.23.13,34.49,1,51.69.51,10,.52,20,.8,30.51-9.1-4.44-18.22-5.9-28-3-.68-10.16-1.47-20.13-1.17-31.32-33.75,36.57-73.32,63.1-116.48,84.79-43,21.58-87.71,37.1-136.7,42.48,4.5,3.64,8.46,6.95,12.53,10.1q28.38,22,56.81,43.93c4.42,3.42,8.77,6.93,13.22,10.32a4,4,0,0,0,4.63.6,850.07,850.07,0,0,0,89.08-47.25c7.38-4.53,14.84-8.94,22-13.77,2.23-1.5,3.44-1.48,5.06.42,3.53,4.13,8.41,6.07,13.45,8.12-12.83,8.84-26,17-39.3,24.87q-34.11,20.31-70,37.4c-6.63,3.18-6.8,3.38-.94,8,15,11.82,30.25,23.39,45.29,35.2,1.75,1.38,2.75.91,4.33,0,17.88-9.84,35.56-20,52.71-31.12,8.28-5.34,16.5-10.76,25.34-16.52,0,6.68-.05,12.72,0,18.76,0,2.34-1.65,3-3.22,4.08-19.5,13.15-39.76,25.07-60.22,36.63a20.67,20.67,0,0,0-1.86,1.39L467.74,637c0-16.12-1.75-31.16-.66-47,6.28,6.63,12.73,12.56,20.73,15.32,7.23,2.5,8.74,6.53,8.19,13.36s-.11,13.81,0,20.72c.24,11.27.69,22.53.88,33.8.11,6.41-2.8,10-8.75,11.43a9.32,9.32,0,0,1-8.28-2.05Q437.68,649.8,395.48,617c-21.39-16.56-42.9-33-64.27-49.55-22-17-43.84-34.29-65.84-51.33q-36.28-28.12-72.73-56C173.07,445,153.7,429.66,133.85,415c-10.8-8-18.38-17.54-21.66-30.82s-1-25.88,3.63-38.21C122.25,328.63,133,314,145,300.22,150.81,293.63,157.11,287.56,163.43,281.08Z" transform="translate(-0.1 -0.59)"/><path class="cls-2" d="M137.29,477.94c-18.4,13.95-22.6,32.49-18.2,54.32A96.34,96.34,0,0,1,102.62,520c-5.59-5-11.49-7.41-19.11-6.7-6.64.63-13.39.13-20.66.13,5.12-6.69,9.79-13,14.75-19.15a16.87,16.87,0,0,0,3.81-11.15c0-8.13,0-16.26,0-24.48,7.2,3,11.44,9.59,17.56,13.72a28.83,28.83,0,0,0,20.24,4.75c5.51-.64,11.15-.12,16.73-.12Z" transform="translate(-0.1 -0.59)"/><path class="cls-2" d="M1.14,309.43c-1.31-13.18,10.49-26.77,25.8-26.64,14.83.13,26.4,10.53,26.58,26.11.2,16.19-12.88,26.64-27,26.67C14.2,335.59-.29,323.44,1.14,309.43Z" transform="translate(-0.1 -0.59)"/><path class="cls-2" d="M253.66,1.56h7.76c9.1-.17,20.95,9,22.42,22.06,1.18,10.51-2.26,19.52-11.3,25.44-9.19,6-18.92,6.37-28.6.72-10.05-5.87-14.74-18-11.67-29.95C234.69,10.34,244.27,2.17,253.66,1.56Z" transform="translate(-0.1 -0.59)"/><path class="cls-2" d="M62.46,127.94c4.07-5.23,7.22-10.12,11.19-14.21,7.17-7.37,6.11-16.31,5.39-25.1-.29-3.43-.43-6.8-.68-11.32,5.8,4.52,11,8.36,15.93,12.47,4.4,3.66,9.16,5.63,15,5.22,6.35-.44,12.75.56,19.81-.57-14.44,13.51-21.66,29.2-16,49.26-8.8-4.45-14.26-12.21-22.92-15.29C81.23,125.24,72.21,128.18,62.46,127.94Z" transform="translate(-0.1 -0.59)"/><path class="cls-2" d="M560.87,133.36c-10.28,11-16.53,22.46-11.92,38.12-10.62-10.95-22.55-15.91-38.37-11.29,4-7.46,10.43-11.53,12.2-18.12s.75-13.58.07-21C533.45,131.25,545.08,137.9,560.87,133.36Z" transform="translate(-0.1 -0.59)"/><path class="cls-1" d="M211.4,278.24c15.53-11.6,32.16-21.15,48.85-30.62,2.81-1.6,3.65.12,4.93,2.07,8.39,12.81,16.9,25.55,25.34,38.33,4.69,7.1,9.39,14.2,14,21.37,1.22,1.89,2.34,4.4,4.86,2.94,1.95-1.14,1-3.53.31-5.5-8.15-22.45-16.16-45-24.48-67.35-1.11-3-.41-3.9,2.11-5a430,430,0,0,1,54.05-19.85c.39,11,.67,21.72,1.19,32.45.69,14,1.76,28.06,1.72,42.12,0,1.81.08,3.55,2.52,3.7,2.26.14,2.79-1.16,3.17-3.14,4.9-25.12,10.05-50.2,14.71-75.36.77-4.19,1.61-5.89,6.21-6.7,17.26-3,34.49-4.47,52-2.64,7.27.76,14.38,2,20.95,5.16,17.95,8.49,20.76,21.2,14,39.36-5.56,14.9-15.09,27.39-25.77,38.92-25.31,27.31-55.27,48.54-87.82,66.34a440.74,440.74,0,0,1-71.93,31.54c-17.14,5.72-34.58,10.37-52.44,12.85-19.14,2.67-38.45,4.09-57.43-1.65-10.62-3.22-20.21-8-23.17-19.82-2.23-8.93.35-17.55,4-25.74,5-11.15,12-20.94,19.87-30.2a239.6,239.6,0,0,1,24.8-25c2.06-1.82,3.51-2.31,6.06-1.08Q229.42,313,265,330c.7.34,1.39.7,2.1,1,1.8.77,3.8,1.38,5.08-.54,1.53-2.27-.73-3.39-2.07-4.47q-28.52-23.06-57.1-46A18.3,18.3,0,0,1,211.4,278.24Z" transform="translate(-0.1 -0.59)"/></g></g></svg>