<svg xmlns="http://www.w3.org/2000/svg" viewBox="0 0 135.8 129"><defs><style>.cls-1{fill:#454545;}</style></defs><title>Varlık 1</title><g id="katman_2" data-name="katman 2"><g id="katman_1-2" data-name="katman 1"><path class="cls-1" d="M57,118.24a9.44,9.44,0,0,1-2.75-4c1.62-.59,4.95,2.78,4.75-2,1.93,2.47,3.93,4.9,5.78,7.44,1.56,2.14,2.78,2.28,4.5,0,3.73-4.89,7.46-9.75,9.9-15.47A14.81,14.81,0,0,0,80.39,97c-.24-2.86-1.39-4.19-4.45-3.71a55,55,0,0,1-17.41,0c-3.58-.58-4.7,1-4.88,4.31-.31,5.73,3.16,10,5.35,14.7-1.72.29-3.73-.68-5.11,1.16a22.15,22.15,0,0,1-4.93-9.6c-.63-2.25-1.54-2.6-3.93-2-13.16,3.06-26.43,2.06-39.69.46-1.37-.17-2.69-.49-3.23-1.91-.61-1.62.19-2.85,1.32-4A64.73,64.73,0,0,1,18.67,85.15C20.8,84,23,82.91,25.47,81.6c-4.64-4.12-8.95-8-11.53-13.35,1.3-.75,2.77-1.81,1.46-3.25-1.12-1.22-1.51,1.1-2.52,1.28C7.48,56.75,2.5,47,0,36.25c.5-.26,1.36-.46,1.43-.81.21-1-.75-1-1.47-1.19.54-2.81,2.49-1.94,4.14-1.49,5.74,1.58,11.54,3,17.16,5,3.3,1.14,4.42.64,4.52-3C26,28,26.59,21.17,27,14.38,27.14,11,28.51,8.83,31.88,11c6,3.88,11.64,8.23,17.4,12.43.14.1-.14.77-.22,1.18,0,1.08-1.44,2.05-.34,3.17a1,1,0,0,0,1.65-.23c.64-1.33-.56-2-1.16-3,2.08-.24,2.69-1.92,3.57-3.45,3.47-6,6.95-12.07,10.59-18,2.6-4.22,4.6-4.22,7.27.11C74.47,9.47,78.2,15.74,81.7,22.13c1.29,2.36,2.06,2.74,4.3,1,5.11-4,10.4-7.7,15.73-11.35,4.15-2.84,5.69-1.95,6.26,3.07a148,148,0,0,1,1,19.4c-.82.14-1.7.23-1.81,1.29-.15,1.37.84,1.57,1.87,1.69,1.23,2,2.84,1,4.38.55,5.89-1.7,11.76-3.45,17.67-5.1,3-.85,5.65.16,4.41,3.52-5.29,14.29-10.16,28.87-20.71,40.48-1.53,1.7-3.3,3.19-5.19,5,7.65,3.9,14.92,7.81,20.87,13.67,1.27,1.25,3.06,2.37,2.41,4.55-.74,2.5-3,2.14-4.94,2.39-13.07,1.67-26.13,2.43-39.08-.87-2.09-.53-2.88,0-3.51,2-2.81,8.91-8.66,15.93-14.48,23-2.63,3.19-4.92,3.64-7.49.06-1.44-2-3-3.9-4.57-5.84.11-1,1.6-1.92.35-2.89C58.77,117.48,57.72,118.06,57,118.24Zm10-31,2.11-.06c4.21.83,6.55-2.65,9.72-4.23,3.5,2,1.57-1.15,2-2.07,6.89-9.24,8.79-19.53,6.1-30.64-3.51-14.5-10.78-27.32-18.35-40-1.49-2.49-2.53-1.24-3.45.33C57.91,22.92,50.74,35.33,47.25,49.29c-3.21,12.86-1.46,24.84,9,34.19,2.6,2.32,5.47,5,9.63,3.75ZM98.32,20.55C98,19.9,98,18.91,97,18.8c-.16,0-.54.36-.52.52.11,1,1.1.94,1.74,1.31-1.93,1.53-3.81,3.12-5.79,4.57C85.87,30,85.86,30,88.79,37.52s3,7.72,10.9,4.66c1.64-.63,4.38-.29,4.23-3.24-.34-6.84-.78-13.68-1.2-20.77ZM41.1,53.25c-.14-1.41.18-2.9-1.76-3.61A339.37,339.37,0,0,0,6.4,39.3c1.71,4.23,3,7.83,4.6,11.24,2.87,6,6,11.8,9,17.69-1.65,2.45.49,1.7,1.56,1.84C26.7,75.27,31.86,80.43,39.45,82A117.19,117.19,0,0,1,26.77,66c-.85-1.32-2.4-2.94-.29-4.25,1.94-1.21,2.57,1,3.28,2.07A79.93,79.93,0,0,0,41,77.76c1.13,1.07,2.18,3,4.49,2.19-3.58-7.63-6.09-15.28-4.82-23.7,1.58-.06,3.34.24,4-2.16Zm57,25.35a19.91,19.91,0,0,0-1.58,1.88c-.34.51-1.65.67-.57,2,19.85-7.47,25.08-25.72,32.74-43.32-11.84,3.12-22.48,6.71-33.1,10.39-2.4.84-2.81,2.19-2.39,4.54,1.47,8.15-.35,15.84-3.57,23.31-.46,1.06-1.9,2.08-.48,3.6,3.73-1.06,5.54-4.56,8.41-6.67ZM32.18,17.75c-.28,5.31-.44,9.62-.75,13.92-.68,9.46-.71,9.46,8.22,12.17a3,3,0,0,1,.45.21c1.69.8,2.74.33,3.38-1.47C44.76,39,46,35.39,47.54,31.93c.82-1.84.18-2.83-1.13-3.79C41.9,24.83,37.37,21.53,32.18,17.75ZM11.33,97.11c3.57.37,6.3.74,9,.93a79,79,0,0,0,25.16-2.15c1.67-.42,3.39-1,3.3-3.1C48.75,91,46.9,91.44,45.74,91c-3.43-1.23-6.83-2.53-10.26-3.76C34,86.72,32.58,85,31,85.64,24.26,88.53,17.46,91.41,11.33,97.11ZM123.63,97c-6.12-5.1-12.3-8.15-18.67-10.88a3.67,3.67,0,0,0-3.31.09,60.09,60.09,0,0,1-14.44,5.22,8,8,0,0,0-2.07,1.2c.54.79.91,1.89,1.66,2.3A16.11,16.11,0,0,0,91,96.32,85.72,85.72,0,0,0,123.63,97ZM82.85,99.4c1.42-2,1.33-3.32.24-4.87C81.47,96,81.86,97.3,82.85,99.4Zm24-76c0-.66,0-1.4-.75-1.57-.94-.22-1,.62-1.07,1.23s0,1.4.75,1.58C106.75,24.89,106.73,24,106.88,23.43ZM5.73,37.14A1.26,1.26,0,0,0,5,35.55a1.09,1.09,0,0,0-1.59.55c-.3.74.24,1.22.79,1.58S5.39,37.8,5.73,37.14Zm86.49,22-1.09-1.43c-.32.25-.84.44-.93.75-.19.61,0,1.31.81,1.27A3.46,3.46,0,0,0,92.22,59.14ZM14.73,62.5c-.41-.44-.64-.91-1-1a1.37,1.37,0,0,0-1.2.34c-.38.68,0,1.19.77,1.2A4.63,4.63,0,0,0,14.73,62.5Zm24.93,23c-.11-.67-.41-1.08-.93-.81a1.57,1.57,0,0,0-.62,1.08c0,.45.19,1,.81.66C39.27,86.25,39.46,85.78,39.66,85.51ZM96.53,100l-.83-.36c-.12.27-.39.61-.31.81s.51.26.78.38Zm-44.95,1.55c-.11-.28-.16-.72-.35-.8s-.55.17-.83.28c.11.28.15.71.35.8S51.3,101.64,51.58,101.53ZM96.2,85.89c.12-.28.39-.62.32-.82s-.51-.26-.79-.38c-.12.28-.39.62-.31.82S95.93,85.77,96.2,85.89ZM107.59,81c-.28-.12-.62-.39-.82-.31s-.25.51-.37.78c.27.12.61.39.81.32S107.47,81.28,107.59,81ZM67.21,124.89c.11-.28.38-.62.31-.82s-.51-.26-.79-.38c-.12.28-.39.62-.31.82S66.93,124.77,67.21,124.89Zm20.09-43c-.3.17-.76.28-.82.51-.19.61.25.81.76.66.27-.07.47-.38.7-.59Z"/></g></g></svg>